<svg xmlns="http://www.w3.org/2000/svg" viewBox="0 0 500 360"><rect width="500" height="360" rx="28" fill="#f7f3ea"/><g transform="translate(85 68)"><path d="M55 30c48 0 74 20 110 20s62-20 110-20v82c0 82-43 142-110 142S55 194 55 112z" fill="#dcebe3" stroke="#abc7b8" stroke-width="4"/><path d="M55 60C20 70 4 91 0 124c25 14 50 20 74 18M275 60c35 10 51 31 55 64-25 14-50 20-74 18" fill="none" stroke="#abc7b8" stroke-width="10" stroke-linecap="round"/><circle cx="86" cy="78" r="7" fill="#b96d50"/><circle cx="112" cy="73" r="7" fill="#b96d50"/><circle cx="218" cy="73" r="7" fill="#b96d50"/><circle cx="244" cy="78" r="7" fill="#b96d50"/><path d="M116 96c22 12 76 12 98 0" fill="none" stroke="#fff" stroke-width="8" stroke-linecap="round"/></g></svg>